<svg class="icon" style="width: 1em;height: 1em;vertical-align: middle;fill: currentColor;overflow: hidden;" viewBox="0 0 1024 1024" version="1.1" xmlns="http://www.w3.org/2000/svg"><path d="M86.592 632.64l-1.088 127.936h-12.8l1.024-128 12.864 0.064z" fill="#1B1B1B" /><path d="M515.1744 1018.6496l-442.3296-257.856 6.4448-11.0592 442.3296 257.856z" fill="#1B1B1B" /><path d="M736.224 891.1232L513.984 1018.1888l-6.3488-11.1104 222.2336-127.072z" fill="#1B1B1B" /><path d="M80 755.2m-19.2 0a19.2 19.2 0 1 0 38.4 0 19.2 19.2 0 1 0-38.4 0Z" fill="#1B1B1B" /><path d="M515.2 1004.8m-19.2 0a19.2 19.2 0 1 0 38.4 0 19.2 19.2 0 1 0-38.4 0Z" fill="#1B1B1B" /><path d="M831.104 814.912l111.424-63.104 6.336 11.136-111.36 63.04-6.4-11.072z" fill="#1B1B1B" /><path d="M951.104 250.7648l-2.144 511.9936-12.8-0.0512 2.144-512z" fill="#1B1B1B" /><path d="M730.176 123.0336l221.1648 128.928-6.4448 11.0592-221.1648-128.928z" fill="#1B1B1B" /><path d="M944 256m-19.2 0a19.2 19.2 0 1 0 38.4 0 19.2 19.2 0 1 0-38.4 0Z" fill="#1B1B1B" /><path d="M944 748.8m-19.2 0a19.2 19.2 0 1 0 38.4 0 19.2 19.2 0 1 0-38.4 0Z" fill="#1B1B1B" /><path d="M620.8 84.864L510.464 19.904l6.464-11.072L627.2 73.792l-6.4 11.072z" fill="#1B1B1B" /><path d="M72.2176 263.008l444.4736-254.144 6.3552 11.1168-444.48 254.144z" fill="#1B1B1B" /><path d="M72.448 516.544v-256h12.8v256z" fill="#1B1B1B" /><path d="M80 268.8m-19.2 0a19.2 19.2 0 1 0 38.4 0 19.2 19.2 0 1 0-38.4 0Z" fill="#1B1B1B" /><path d="M515.2 19.2m-19.2 0a19.2 19.2 0 1 0 38.4 0 19.2 19.2 0 1 0-38.4 0Z" fill="#1B1B1B" /><path d="M833.856 353.088l-0.832 411.072-263.168-151.872 0.896-411.136 263.104 151.936z" fill="#F2F2F2" /><path d="M833.856 353.088L899.2 315.072l-0.832 411.136-65.344 37.952 0.832-411.072z" fill="#E6E6E6" /><path d="M570.752 201.152l65.344-37.952L899.2 315.072l-65.344 38.016-263.104-151.936z" fill="#F9F9F9" /><path d="M692.864 407.488a5.696 5.696 0 0 1-0.896 2.88l-12.8 17.984L678.848 531.2a15.104 15.104 0 0 0 6.848 11.776c3.712 2.176 6.784 0.384 6.784-3.968l0.384-131.712M689.216 397.76" fill="#00A0E9" /><path d="M686.08 395.2c-2.368-1.344-4.672-1.28-5.888 0.512l-19.2 27.136a11.456 11.456 0 0 0 2.368 12.352 12.096 12.096 0 0 0 3.392 3.008 4.288 4.288 0 0 0 5.952-0.448l6.4-9.152 12.8-17.984a5.696 5.696 0 0 0 0.896-2.88 14.336 14.336 0 0 0-3.264-9.088 11.264 11.264 0 0 0-3.136-2.752M716.928 559.488a1.088 1.088 0 0 1-0.64 0 1.088 1.088 0 0 0 0.64 0M718.72 557.888a3.008 3.008 0 0 1-1.408 1.152 3.072 3.072 0 0 0 1.6-1.408m-5.632-147.2c-3.776-2.176-6.848-0.448-6.848 3.84l-0.384 132.288a14.016 14.016 0 0 0 1.152 5.12 9.28 9.28 0 0 1 0-8.512l12.8-17.984V422.4a14.912 14.912 0 0 0-6.784-11.712" fill="#00A0E9" /><path d="M731.84 515.904c-2.304-1.344-4.608-1.28-5.888 0.512l-6.4 9.088-12.8 17.984a9.28 9.28 0 0 0 0 8.512 15.04 15.04 0 0 0 2.048 3.328 12.096 12.096 0 0 0 3.392 3.008 6.4 6.4 0 0 0 1.984 0.768h1.792a1.088 1.088 0 0 0 0.64 0 3.008 3.008 0 0 0 1.408-1.152l19.2-26.88a11.264 11.264 0 0 0-2.432-12.096 12.288 12.288 0 0 0-3.456-3.008" fill="#00A0E9" /><path d="M589.568 598.016v9.088l-7.872-4.544v-9.024l7.872 4.48z" fill="#00A0E9" /><path d="M589.568 598.016l1.92-1.088v9.024l-1.92 1.152v-9.088z" fill="#14BAF4" /><path d="M581.696 593.536l1.984-1.152 7.808 4.544-1.92 1.088-7.872-4.48z" fill="#3DCBFC" /><path d="M600.512 604.608v9.024l-7.872-4.544v-9.024l7.872 4.544z" fill="#00A0E9" /><path d="M600.512 604.608l1.984-1.088-0.064 9.024-1.92 1.088v-9.024z" fill="#14BAF4" /><path d="M592.64 600.064l1.984-1.088 7.872 4.544-1.984 1.088-7.872-4.544z" fill="#3DCBFC" /><path d="M589.568 582.464v9.024l-7.872-4.544V577.92l7.872 4.544z" fill="#00A0E9" /><path d="M589.568 582.464l1.92-1.152v9.024l-1.92 1.152v-9.024z" fill="#14BAF4" /><path d="M581.696 577.92l1.984-1.152 7.808 4.544-1.92 1.152-7.872-4.544z" fill="#3DCBFC" /><path d="M600.512 588.992v9.088l-7.872-4.544v-9.024l7.872 4.48z" fill="#00A0E9" /><path d="M600.512 588.992l1.984-1.088-0.064 9.024-1.92 1.152v-9.088z" fill="#14BAF4" /><path d="M592.64 584.512l1.984-1.152 7.872 4.544-1.984 1.088-7.872-4.48z" fill="#3DCBFC" /><path d="M612.736 611.968v9.024l-7.872-4.544v-9.024l7.872 4.544z" fill="#00A0E9" /><path d="M612.736 611.968l1.984-1.152-0.064 9.024-1.92 1.152v-9.024z" fill="#14BAF4" /><path d="M604.864 607.424l1.984-1.152 7.872 4.544-1.984 1.152-7.872-4.544z" fill="#3DCBFC" /><path d="M623.68 618.56v9.024l-7.872-4.544 0.064-9.024 7.808 4.544z" fill="#00A0E9" /><path d="M623.68 618.56l1.984-1.152v9.024l-1.984 1.152v-9.024z" fill="#14BAF4" /><path d="M615.872 614.016l1.92-1.152 7.872 4.544-1.984 1.152-7.808-4.544z" fill="#3DCBFC" /><path d="M612.736 596.352v9.024l-7.872-4.544v-9.024l7.872 4.544z" fill="#00A0E9" /><path d="M612.736 596.352l1.984-1.152-0.064 9.024-1.92 1.152v-9.024z" fill="#14BAF4" /><path d="M604.864 591.808l1.984-1.152 7.872 4.544-1.984 1.152-7.872-4.544z" fill="#3DCBFC" /><path d="M623.68 602.944v9.024l-7.872-4.544 0.064-9.024 7.808 4.544z" fill="#00A0E9" /><path d="M623.68 602.944l1.984-1.152v9.024l-1.984 1.152v-9.024z" fill="#14BAF4" /><path d="M615.872 598.4l1.92-1.152 7.872 4.544-1.984 1.152-7.808-4.544z" fill="#3DCBFC" /><path d="M589.568 565.568v9.024l-7.872-4.48v-9.024l7.872 4.48z" fill="#00A0E9" /><path d="M589.568 565.568l1.92-1.088v9.024l-1.92 1.088v-9.024z" fill="#14BAF4" /><path d="M581.696 561.088l1.984-1.152 7.808 4.544-1.92 1.088-7.872-4.48z" fill="#3DCBFC" /><path d="M600.512 572.16v9.024l-7.872-4.544v-9.024l7.872 4.544z" fill="#00A0E9" /><path d="M600.512 572.16l1.984-1.152-0.064 9.088-1.92 1.088V572.16z" fill="#14BAF4" /><path d="M592.64 567.616l1.984-1.088 7.872 4.48-1.984 1.152-7.872-4.544z" fill="#3DCBFC" /><path d="M612.736 579.52v9.024l-7.872-4.544v-9.024l7.872 4.544z" fill="#00A0E9" /><path d="M612.736 579.52l1.984-1.152-0.064 9.024-1.92 1.152v-9.024z" fill="#14BAF4" /><path d="M604.864 574.976l1.984-1.152 7.872 4.544-1.984 1.152-7.872-4.544z" fill="#3DCBFC" /><path d="M623.68 586.112v9.024l-7.872-4.544 0.064-9.024 7.808 4.544z" fill="#00A0E9" /><path d="M623.68 586.112l1.984-1.152v9.024l-1.984 1.152v-9.024z" fill="#14BAF4" /><path d="M615.872 581.568l1.92-1.152 7.872 4.544-1.984 1.152-7.808-4.544z" fill="#3DCBFC" /><path d="M190.144 353.088l0.896 411.072 263.104-151.872-0.832-411.136-263.168 151.936z" fill="#F2F2F2" /><path d="M190.144 353.088L124.8 315.072l0.896 411.136 65.344 37.952-0.896-411.072z" fill="#E6E6E6" /><path d="M453.312 201.152L387.904 163.2 124.8 315.072l65.344 38.016 263.168-151.936z" fill="#F9F9F9" /><path d="M331.392 414.784l-0.384 131.904a15.04 15.04 0 0 0 6.784 11.776c3.776 2.176 6.784 0.384 6.848-3.968v-103.04l-12.8-32.576a11.584 11.584 0 0 1-0.896-4.096M331.648 411.136a5.696 5.696 0 0 0-0.704 1.664 5.696 5.696 0 0 1 0.704-1.664m11.712 6.4" fill="#E60012" /><path d="M338.176 410.496a6.4 6.4 0 0 0-3.392-0.896 3.392 3.392 0 0 0-2.56 1.536 5.696 5.696 0 0 0-0.704 1.664v0.384a6.4 6.4 0 0 0 0 1.536 11.584 11.584 0 0 0 0.896 4.096l12.8 32.576 6.4 16.64a15.104 15.104 0 0 0 5.888 7.36 5.888 5.888 0 0 0 3.392 0.896c3.264 0 4.416-4.416 2.56-9.28l-19.2-49.216a14.72 14.72 0 0 0-5.76-6.976M307.84 540.032a11.648 11.648 0 0 0 1.984 1.984 11.648 11.648 0 0 1-1.984-1.984m4.032-145.024c-3.776-2.176-6.784-0.448-6.848 3.904v103.104l12.8 32.576a13.184 13.184 0 0 1 0.896 4.096l0.384-131.904a15.104 15.104 0 0 0-6.784-11.776" fill="#E60012" /><path d="M291.904 478.016a6.4 6.4 0 0 0-3.392-0.896c-3.264 0-4.416 4.416-2.496 9.216l19.2 49.28a16.512 16.512 0 0 0 2.304 4.032 11.648 11.648 0 0 0 1.984 1.984l0.768 0.512a6.4 6.4 0 0 0 3.392 0.896c2.24 0 3.52-2.304 3.392-5.184a13.184 13.184 0 0 0-0.896-4.096l-12.8-32.576-6.4-16.64a14.784 14.784 0 0 0-5.888-7.36" fill="#E60012" /><path d="M434.432 598.016l0.064 9.088 7.872-4.544-0.064-9.024-7.872 4.48z" fill="#CC021B" /><path d="M434.432 598.016l-1.92-1.088v9.024l1.984 1.152-0.064-9.088z" fill="#E60012" /><path d="M442.304 593.536l-1.92-1.152-7.872 4.544 1.92 1.088 7.872-4.48z" fill="#F2223C" /><path d="M423.488 604.608v9.024l7.872-4.544v-9.024l-7.872 4.544z" fill="#CC021B" /><path d="M423.488 604.608l-1.92-1.088v9.024l1.92 1.088v-9.024z" fill="#E60012" /><path d="M431.36 600.064l-1.984-1.088-7.808 4.544 1.92 1.088 7.872-4.544z" fill="#F2223C" /><path d="M434.432 582.464l0.064 9.024 7.872-4.544-0.064-9.024-7.872 4.544z" fill="#CC021B" /><path d="M434.432 582.464l-1.92-1.152v9.024l1.984 1.152-0.064-9.024z" fill="#E60012" /><path d="M442.304 577.92l-1.92-1.152-7.872 4.544 1.92 1.152 7.872-4.544z" fill="#F2223C" /><path d="M423.488 588.992v9.088l7.872-4.544v-9.024l-7.872 4.48z" fill="#CC021B" /><path d="M423.488 588.992l-1.92-1.088v9.024l1.92 1.152v-9.088z" fill="#E60012" /><path d="M431.36 584.512l-1.984-1.152-7.808 4.544 1.92 1.088 7.872-4.48z" fill="#F2223C" /><path d="M411.264 611.968l0.064 9.024 7.808-4.544v-9.024l-7.872 4.544z" fill="#CC021B" /><path d="M411.264 611.968l-1.92-1.152v9.024l1.984 1.152-0.064-9.024z" fill="#E60012" /><path d="M419.136 607.424l-1.92-1.152-7.872 4.544 1.92 1.152 7.872-4.544z" fill="#F2223C" /><path d="M400.32 618.56v9.024l7.872-4.544v-9.024l-7.872 4.544z" fill="#CC021B" /><path d="M400.32 618.56l-1.984-1.152 0.064 9.024 1.92 1.152v-9.024z" fill="#E60012" /><path d="M408.192 614.016l-1.984-1.152-7.872 4.544 1.984 1.152 7.872-4.544z" fill="#F2223C" /><path d="M411.264 596.352l0.064 9.024 7.808-4.544v-9.024l-7.872 4.544z" fill="#CC021B" /><path d="M411.264 596.352l-1.92-1.152v9.024l1.984 1.152-0.064-9.024z" fill="#E60012" /><path d="M419.136 591.808l-1.92-1.152-7.872 4.544 1.92 1.152 7.872-4.544z" fill="#F2223C" /><path d="M400.32 602.944v9.024l7.872-4.544V598.4l-7.872 4.544z" fill="#CC021B" /><path d="M400.32 602.944l-1.984-1.152 0.064 9.024 1.92 1.152v-9.024z" fill="#E60012" /><path d="M408.192 598.4l-1.984-1.152-7.872 4.544 1.984 1.152 7.872-4.544z" fill="#F2223C" /><path d="M434.432 565.568l0.064 9.024 7.872-4.48-0.064-9.024-7.872 4.48z" fill="#CC021B" /><path d="M434.432 565.568l-1.92-1.088v9.024l1.984 1.088-0.064-9.024z" fill="#E60012" /><path d="M442.304 561.088l-1.92-1.152-7.872 4.544 1.92 1.088 7.872-4.48z" fill="#F2223C" /><path d="M423.488 572.16v9.024l7.872-4.544v-9.024l-7.872 4.544z" fill="#CC021B" /><path d="M423.488 572.16l-1.92-1.152v9.088l1.92 1.088V572.16z" fill="#E60012" /><path d="M431.36 567.616l-1.984-1.088-7.808 4.48 1.92 1.152 7.872-4.544z" fill="#F2223C" /><path d="M411.264 579.52l0.064 9.024 7.808-4.544v-9.024l-7.872 4.544z" fill="#CC021B" /><path d="M411.264 579.52l-1.92-1.152v9.024l1.984 1.152-0.064-9.024z" fill="#E60012" /><path d="M419.136 574.976l-1.92-1.152-7.872 4.544 1.92 1.152 7.872-4.544z" fill="#F2223C" /><path d="M400.32 586.112v9.024l7.872-4.544v-9.024l-7.872 4.544z" fill="#CC021B" /><path d="M400.32 586.112l-1.984-1.152 0.064 9.024 1.92 1.152v-9.024z" fill="#E60012" /><path d="M408.192 581.568l-1.984-1.152-7.872 4.544 1.984 1.152 7.872-4.544z" fill="#F2223C" /><path d="M525.952 785.408h-25.6v-57.6h25.6z m0-115.2h-25.6v-57.6h25.6z m0-115.2h-25.6v-57.6h25.6z m0-115.2h-25.6v-57.6h25.6z m0-115.2h-25.6v-57.6h25.6z m0-115.2h-25.6v-57.6h25.6z" fill="#231815" /><path d="M156.512 297.7792l366.6048 211.232-6.3872 11.0912L150.1248 308.864z" fill="#1B1B1B" /><path d="M507.328 507.968l366.2272-211.872 6.4128 11.0848L513.728 519.0528z" fill="#1B1B1B" /><path d="M508.2688 930.1952l-0.3712-423.104 12.8-0.0128 0.3712 423.104z" fill="#1B1B1B" /><path d="M515.2 512m-19.2 0a19.2 19.2 0 1 0 38.4 0 19.2 19.2 0 1 0-38.4 0Z" fill="#1B1B1B" /></svg>